<svg width="1275" height="627" viewBox="0 0 1275 627" fill="none" xmlns="http://www.w3.org/2000/svg">
<path d="M198 7.00001C132 -9.79999 61.5 14 34.5 28C-26.3 114.8 9.16667 171.5 34.5 189C53.6667 226.667 80.5 319.9 34.5 391.5C-11.5 463.1 15.3333 530.333 34.5 555C71.3333 569.667 159.3 593.9 216.5 573.5C273.7 553.1 415 565 478.5 573.5C528.5 585.833 656.6 608.2 769 599C881.4 589.8 989.167 602.833 1029 610.5C1101.83 622 1247.5 638.1 1247.5 610.5C1247.5 576 1266 520.5 1266 490.5C1266 466.5 1253.67 425.167 1247.5 407.5C1247.5 387.667 1251.2 338.8 1266 302C1284.5 256 1266 193.5 1247.5 168.5C1232.7 148.5 1253.67 80.1667 1266 48.5C1254.5 34.6667 1222.3 7.00001 1185.5 7.00001C1148.7 7.00001 1042.83 34.6667 994.5 48.5C953.833 34.6667 846.7 7.00001 743.5 7.00001C614.5 7.00001 633 28 478.5 48.5C324 69 280.5 28 198 7.00001Z" fill="#7DEDFF" stroke="black"/>
</svg>
